<svg xmlns="http://www.w3.org/2000/svg" xmlns:xlink="http://www.w3.org/1999/xlink" width="993.109" height="825.66" viewBox="0 0 993.109 825.66"><defs><clipPath id="a"><rect width="993.11" height="825.66" fill="none"/></clipPath><clipPath id="b"><rect width="2148.06" height="1797.64" fill="none"/></clipPath><clipPath id="c"><path d="M-650.05-253.63,1240.16-587.54,1408.9,877.16l-1890.22,333.9Z" transform="translate(650.05 587.54)" fill="none"/></clipPath><clipPath id="d"><rect width="603.5" height="1000.25" transform="translate(0 105.003) rotate(-10.02)" fill="none"/></clipPath><clipPath id="e"><rect width="441.57" height="1000.25" transform="translate(0 76.829) rotate(-10.02)" fill="none"/></clipPath><clipPath id="f"><rect width="290.85" height="1000.25" transform="translate(0 50.605) rotate(-10.02)" fill="none"/></clipPath><clipPath id="g"><rect width="396.09" height="923.85" transform="translate(0 68.916) rotate(-10.02)" fill="none"/></clipPath><clipPath id="h"><rect width="245.52" height="131.46" transform="translate(0 42.718) rotate(-10.02)" fill="none"/></clipPath><clipPath id="i"><rect width="659.38" height="1000.25" transform="translate(0 114.726) rotate(-10.02)" fill="none"/></clipPath><clipPath id="j"><rect width="671.62" height="1000.25" transform="translate(0 116.855) rotate(-10.02)" fill="none"/></clipPath><clipPath id="k"><rect width="637.63" height="1000.25" transform="translate(0 110.941) rotate(-10.02)" fill="none"/></clipPath><clipPath id="l"><rect width="564.04" height="1000.25" transform="translate(0 98.137) rotate(-10.02)" fill="none"/></clipPath><clipPath id="m"><rect width="538.43" height="1000.25" transform="translate(0 93.681) rotate(-10.02)" fill="none"/></clipPath><clipPath id="n"><rect width="464.37" height="1000.25" transform="translate(0 80.796) rotate(-10.02)" fill="none"/></clipPath><clipPath id="o"><path d="M994.35-560Z" transform="translate(-994.35 560)" fill="none"/></clipPath><clipPath id="p"><rect width="167.76" height="26.88" transform="translate(0 29.189) rotate(-10.02)" fill="none"/></clipPath><clipPath id="q"><rect width="297.27" height="1000.25" transform="translate(0 51.722) rotate(-10.02)" fill="none"/></clipPath><clipPath id="r"><rect width="13.9" height="0.84" transform="translate(0 2.418) rotate(-10.02)" fill="none"/></clipPath><clipPath id="s"><rect width="294.27" height="1000.25" transform="translate(0 51.2) rotate(-10.02)" fill="none"/></clipPath><clipPath id="t"><rect width="520.95" height="999.08" transform="translate(0 90.64) rotate(-10.02)" fill="none"/></clipPath><clipPath id="u"><rect width="327.01" height="883.85" transform="translate(0 56.896) rotate(-10.02)" fill="none"/></clipPath></defs><g transform="translate(-0.001)" clip-path="url(#a)"><g transform="translate(-670.42 -232.28)" clip-path="url(#b)"><g transform="translate(90 -0.68)"><g opacity="0.1"><path d="M0,377.87,1890.21,43.97l168.74,1464.69L168.74,1842.57Z" transform="translate(0 -43.96)" fill="none"/><g clip-path="url(#c)"><g transform="translate(576.2 -44.016)"><g transform="translate(0)"><path d="M87.48-355.53a74.182,74.182,0,0,1-10.91,1.41c-7.63.58-13.14,1-20.58,10.25-1.77,2.19-2.52,5.62-3.25,8.95s-1.53,7-3.44,9.43C40-313.83,32.42-315.42,19.8-318c-2.17-.45-4.42-.92-6.88-1.37-22.6-4.1-40-22.87-56.7-41.31l1.34-.24C-26-342.88-8.93-324.63,13.05-320.64c2.48.45,4.74.92,6.91,1.37,12.66,2.64,19.62,4.09,28.48-7.07,1.74-2.19,2.49-5.61,3.21-8.92.76-3.46,1.55-7.05,3.48-9.46,7.73-9.61,13.43-10,21.32-10.63a73.513,73.513,0,0,0,10.76-1.4c21.69-4.75,31.24-17.94,41.36-31.91l2.1-2.89,1.7-.3q-1.49,2-2.91,4c-10.24,14.14-19.92,27.49-42,32.33" transform="translate(73.85 631.556)"/><g transform="translate(230.85 141.486)"><path d="M241,588.81l531.4-93.88-174-985L157-396.19Z" transform="translate(-157 490.07)" fill="none"/></g><g transform="translate(351.213 93.18)"><path d="M451.38,551.64l594.3-105-174-985-594.3,105Z" transform="translate(-277.363 538.375)" fill="none"/><g transform="translate(0)" clip-path="url(#d)"><g transform="translate(60.861 74.766)"><path d="M486.2-403.57c3.25,4.69,7.29,9.9,11.57,15.42,13.34,17.21,29.94,38.64,32.9,58,3.07,20.08-5.58,29.05-14.75,38.55-4.85,5-9.87,10.23-13.6,17.39-22.57,43.32,21.11,78.64,59.64,109.79,22.43,18.14,41.8,33.8,44.2,48.3a16.79,16.79,0,0,1-2.56,12.18c-6.31,9.82-31,7-47.39,5.22-5-.56-9.29-1-12-1-14.66,0-26.14-3.64-38.31-7.49a190.851,190.851,0,0,0-24.88-6.64c-18.16-3.24-28.46,5.5-38.42,14-11.1,9.43-22.59,19.17-44.71,12.2a119.809,119.809,0,0,1-12.74-5.53c-13.56-6.43-32.13-15.23-40.84-9.38-3.1,2.09-4.73,5.82-5,11.4-.75,16.3,25.51,44.09,41.2,60.68,3.59,3.81,6.69,7.09,8.71,9.45,3,3.43,5.88,6.78,8.78,10.11C413.73,7,428.54,24,440.34,46.3,458.08,79.9,474,98.08,507.09,97.93h1.07c45.22-.22,80.93-.39,124.29,28.1C655.17,141,671.63,164,687.54,186.2c9.35,13.06,19,26.57,29.85,38.3,13.46,14.59,26.14,25.07,38.41,35.21,18.9,15.61,36.75,30.36,53.64,57.51,21,33.76,61.77,44.56,99.14,26.29,31.68-15.5,92-30.25,117.12,12.81,11.23,19.26,10.86,46.63,10.53,70.79-.1,7.46-.19,14.57,0,21.21l-1.12.19c-.23-6.72-.14-13.92,0-21.47.32-24,.68-51.15-10.35-70.08-24.68-42.32-84.33-27.65-115.69-12.31-37.87,18.52-79.21,7.52-100.54-26.76-16.79-27-34.56-41.65-53.38-57.2-12.29-10.16-25-20.67-38.53-35.31-10.89-11.8-20.58-25.34-30-38.44-15.85-22.15-32.23-45.06-54.76-59.85C588.84,98.79,555,99,508.22,99.17h-1.07c-33.67.16-49.8-18.26-67.77-52.28-11.72-22.21-26.48-39.12-42.11-57-2.9-3.32-5.84-6.69-8.78-10.12-2-2.33-5.1-5.6-8.68-9.39C364-46.39,337.47-74.43,338.24-91.31c.27-5.93,2.12-10.09,5.5-12.36,9.19-6.16,28.06,2.78,41.85,9.3a118.148,118.148,0,0,0,12.6,5.48c21.59,6.8,32.35-2.33,43.74-12,10.14-8.61,20.63-17.5,39.25-14.18a193.547,193.547,0,0,1,25,6.67c12.08,3.83,23.49,7.45,38,7.45,2.72,0,7,.48,12.07,1,16.11,1.81,40.45,4.54,46.4-4.72a15.39,15.39,0,0,0,2.39-11.27c-2.32-14-21.52-29.51-43.74-47.48-18.56-15-39.6-32-52.74-50.45-15.16-21.28-17.53-41.23-7.24-61,3.81-7.3,8.89-12.56,13.79-17.65,9.34-9.68,17.41-18,14.44-37.47-2.92-19.06-19.4-40.34-32.64-57.43-4.29-5.53-8.34-10.76-11.61-15.47-12.1-17.43-23.68-36.56-34.88-55.07q-1.63-2.71-3.3-5.44l1.2-.21,3,5c11.19,18.49,22.76,37.6,34.84,55" transform="translate(-338.224 463.61)"/></g></g></g><g transform="translate(597.279 77.885)"><path d="M697.45,508.17l434.84-76.81-174-985L523.45-476.83Z" transform="translate(-523.43 553.671)" fill="none"/><g transform="translate(0)" clip-path="url(#e)"><g transform="translate(0.02 76.631)"><path d="M603.53-385.28c21.62,9,28.36-2.05,36.9-16.09A116.771,116.771,0,0,1,651.1-416.9c18.14-21.35,42.9-24.42,62.43-24.71,10.46-.16,20.93.37,31.06.89,14.64.74,29.78,1.51,44.9.17l4.7-.43c19.86-1.86,40.41-3.79,58.1,10.36,11.1,8.87,17.11,18.36,17.87,28.2.8,10.44-4.29,21.31-15.13,32.3-2,2-3.83,3.79-5.64,5.55-6.84,6.63-12.75,12.36-17.93,22.26a83.458,83.458,0,0,0-5.35,14.44c-2.22,7.27-4.5,14.8-9.4,20.63-10.25,12.19-23,12.75-36.58,13.32-6,.26-12.25.53-18.25,1.91-25.81,5.94-29.84,21.8-36.52,48.08-2.69,10.58-9.17,19.72-15.43,28.56-7.16,10.09-13.92,19.63-15.23,30.89-2.59,22.36,16.13,40.81,30.44,52.75,15,12.51,32,22.78,48.36,32.72,6.29,3.8,12.8,7.74,19,11.73,3.11,2,10.3,5.34,19.41,9.6,26.55,12.4,66.68,31.16,64.52,43.31-1.69,9.51-45.91,2.18-93.45-7.16C775.62-43,770.25-44,768.66-44.18c-28.89-2.48-61.75-1.46-86.38,25a116.074,116.074,0,0,0-8.06,10c-6.62,8.9-12.87,17.3-24.1,19.55-4.76.95-9.56-.77-14.19-2.43S627,4.77,623,5.78c-6.32,1.59-9.73,4.07-10.1,7.38-.45,3.87,3.06,11.2,22.27,24.17,14.66,9.9,32.43,19.18,52.8,27.55,12.76,5.26,26.74,8.28,40.26,11.21,19.27,4.17,39.19,8.49,56.34,19.3l.29.18c9.44,6,21.19,13.36,22.59,27.31,1.08,10.68-4.53,14.16-9.95,17.54-6.41,4-13,8.12-10.88,23.86,2.92,21.46,28.78,32,47.66,39.65,4.62,1.88,9,3.65,12.46,5.36,21.47,10.59,42.22,11,64.18,11.42,35.82.7,76.43,1.48,133.11,45.37,47,36.39,74.12,83.64,85.37,148.71.94,5.48,1.58,11.09,2.05,16.72l-1.1.19c-.47-5.64-1.11-11.26-2-16.73-11.2-64.71-38.17-111.7-84.89-147.88C987,223.44,946.58,222.65,910.92,222c-22.08-.42-42.93-.83-64.62-11.52-3.44-1.7-7.79-3.46-12.39-5.33-19.16-7.79-45.4-18.46-48.43-40.68-2.25-16.56,5-21.09,11.41-25.08,5.59-3.48,10.42-6.49,9.42-16.37-1.33-13.29-12.79-20.51-22-26.31l-.29-.19c-17-10.71-36.81-15-56-19.16-13.56-2.94-27.59-6-40.44-11.26-20.44-8.41-38.28-17.72-53-27.67C618.73,27.68,611.05,19.12,611.75,13c.44-3.85,4.12-6.68,10.93-8.38,4.34-1.09,9,.59,13.55,2.21s9.16,3.28,13.64,2.38C660.71,7,666.85-1.25,673.34-10a118,118,0,0,1,8.14-10.14c24.94-26.75,58.09-27.8,87.22-25.3,1.65.14,7,1.2,14.48,2.67,27.08,5.31,90.49,17.77,92.2,8.09,2-11.14-39.21-30.39-63.82-41.88-9.14-4.28-16.36-7.65-19.54-9.68-6.24-4-12.74-7.9-19-11.71-16.44-10-33.44-20.25-48.51-32.82-14.55-12.13-33.57-30.93-30.9-53.95,1.34-11.58,8.19-21.24,15.44-31.46,6.21-8.75,12.62-17.8,15.25-28.15,6.56-25.79,10.89-42.83,37.32-48.92,6.09-1.4,12.37-1.67,18.43-1.93,13.32-.57,25.89-1.12,35.84-13,4.75-5.64,7-13,9.17-20.2A84,84,0,0,1,830.49-343c5.26-10.07,11.23-15.86,18.15-22.56,1.8-1.75,3.67-3.56,5.61-5.53,10.58-10.73,15.56-21.26,14.79-31.31-.72-9.45-6.57-18.62-17.37-27.25-17.35-13.87-37.68-12-57.34-10.13l-4.7.44c-15.18,1.34-30.36.57-45-.17-10.11-.52-20.56-1-31-.89-19.32.28-43.8,3.32-61.66,24.34a116.175,116.175,0,0,0-10.56,15.39c-8.8,14.47-15.75,25.9-38.2,16.52C570-398,545.24-439.76,523.45-476.83l1.19-.21c21.63,36.8,46.16,78.09,78.89,91.76" transform="translate(-523.45 477.04)"/></g></g></g><g transform="translate(857.019 58.216)"><path d="M957.18,462.29l286.42-50.6-174-985-286.42,50.6Z" transform="translate(-783.169 573.34)" fill="none"/><g transform="translate(0)" clip-path="url(#f)"><g transform="translate(99.023 12.71)"><path d="M1064.25-524.39c10.52,9.25,15.56,17,15.88,24.31.41,9.47-7.19,16.78-16,25.25-6.12,5.88-13,12.54-17.85,20.73-16.06,27.44-13.6,56.71-11,87.71,1.33,15.94,2.71,32.43,1.33,48.59-2.44,28.61-15.13,35.3-29.82,43.05-8.82,4.66-17.94,9.47-26.39,19.44-21.47,25.38-27.94,75.61-21.62,107.59,11.26,57,65.58,74.68,113.52,90.31,13.08,4.27,25.43,8.3,36.28,12.93,26.38,11.27,40.94,23.23,44.51,36.58,2.12,8,.1,16.29-6,24.72-11.73,16.16-40.11,25-86.74,26.91-5.16.22-20-2.72-38.86-6.43-46.55-9.18-116.89-23.06-134.28-9a9.64,9.64,0,0,0-3.76,6.58c-2.45,21.8,43.82,40.31,59.02,46.4l1.8.72c19.42,7.83,32.83,19,47,30.87,8.91,7.43,18.12,15.12,29.35,22.43,5.27,3.43,12.55,6.13,20.25,9,13.43,5,27.31,10.13,33.92,20.09,3,4.45,4.31,9.36,5.62,14.1a52.49,52.49,0,0,0,4.42,12c13.24,23.51,35.9,35.75,57.81,47.58,3.12,1.69,6.22,3.36,9.26,5.05,3.7,2.06,8.34,4.34,13.25,6.75,22.89,11.23,54.24,26.62,58.86,51,1.87,9.89-1.18,21-4.14,31.68-2.41,8.76-4.91,17.83-4.65,26.1.6,19.08,8.63,36.94,14.62,48.71,1.06,2.08,2.17,4.13,3.3,6.16l-1.17.21c-1.06-1.91-2.1-3.84-3.1-5.79-6.05-11.89-14.17-29.94-14.78-49.3-.26-8.47,2.27-17.64,4.71-26.5,2.91-10.57,5.92-21.49,4.11-31.07-4.5-23.72-35.53-38.95-58.18-50.08-4.92-2.41-9.57-4.7-13.3-6.77-3-1.69-6.13-3.36-9.24-5-22.07-11.92-44.88-24.24-58.31-48.08a53.544,53.544,0,0,1-4.54-12.31c-1.29-4.64-2.62-9.45-5.45-13.71-6.38-9.62-20.08-14.71-33.33-19.63-7.77-2.88-15.1-5.6-20.47-9.1-11.29-7.35-20.53-15.06-29.47-22.51-14.12-11.79-27.46-22.92-46.71-30.68l-1.8-.73c-15.42-6.17-62.34-24.94-59.82-47.78a10.78,10.78,0,0,1,4.18-7.4c17.76-14.34,88.38-.4,135.11,8.82,18.76,3.7,33.57,6.62,38.62,6.41,45.66-1.91,74.58-10.82,85.94-26.47C1152.05,7.91,1154,0,1152-7.6c-3.41-12.75-18.14-24.77-43.8-35.72-10.8-4.61-23.14-8.63-36.19-12.89-48.25-15.74-102.94-33.57-114.34-91.29-6.38-32.29.17-83,21.89-108.68,8.58-10.14,18.21-15.21,26.7-19.69,14.4-7.6,26.83-14.16,29.22-42.1,1.37-16,0-32.48-1.33-48.36-2.62-31.21-5.09-60.7,11.17-88.48,4.88-8.33,11.88-15.05,18-21,8.59-8.26,16-15.4,15.64-24.29-.3-6.84-5.35-14.48-15.43-23.35-19.44-17.1-44-27.3-68.12-36.78l2.28-.4c23.6,9.3,47.44,19.45,66.51,36.22" transform="translate(-882.192 560.63)"/></g></g></g><path d="M1467.64,308.69c29.61-3.25,45.15,22.49,60.17,47.37,1,1.61,2,3.26,3,4.9l-1.19.21q-1.36-2.24-2.7-4.46c-14.84-24.55-30.18-49.9-59.1-46.78-37.23,4.05-35.45,33.7-33.56,65.09.06,1,.11,2,.14,3l-1.11.2c0-1-.08-2.07-.15-3.14-1.92-32-3.74-62.2,34.52-66.36" transform="translate(73.85 631.556)"/><g transform="translate(1082.818 0.012)"><path d="M1169.7,347.16l390.06-68.9L1399.05-631.5,1009-562.6Z" transform="translate(-1008.968 631.544)" fill="none"/><g clip-path="url(#g)"><g transform="translate(95.002 52.014)"><path d="M1192.44-519.22c23.63,22.65,47.8,56.29,44.77,82.78-1.5,13.17-9.62,23.29-24.13,30.09-5.71,2.67-12.42,4.58-18.91,6.42-20.24,5.75-39.36,11.18-35.59,38,2.14,15.22,8.33,27.14,14.31,38.66,9,17.31,17.49,33.66,12.13,59.36-2.33,11.18-7.19,22.34-12.33,34.15-9,20.7-18.33,42.1-13.36,64,6.56,29,33.72,34.3,55.55,38.59,5.76,1.13,12.08,1.85,18.77,2.61,21.1,2.39,45,5.09,59.45,22.45,10.79,13,9.89,25.65,8.84,40.33q-.12,1.75-.24,3.54c-.46,6.83-.43,14.39-.4,22.39.06,16.83.12,34.25-4.27,47.7-7.53,23-25.23,38.28-42.35,53.06-10.66,9.2-21.68,18.71-29.84,29.87a116.626,116.626,0,0,0-7.67,12.67c-5.92,10.76-12,21.89-24.93,24.5-9.23,1.87-17.79-3.12-26.07-8-6.28-3.67-12.79-7.47-19.36-8-8.68-.71-13.77.73-15.13,4.27-3,7.84,12.52,25,17.62,30.63,19.42,21.45,40.81,28.42,63.47,35.79,7.2,2.34,14.65,4.77,22.29,7.72,26.48,10.23,64.74,47.15,74.38,79.44,2.08,6.94.4,13.94-1.08,20.12-1,4.13-1.83,7.68-1.37,10.4.87,5.16,3.29,9,7.18,11.32,6,3.64,15.15,3.27,23.84-1,26.41-12.9,22.81-32.09,19-52.41-2.67-14.22-5.43-28.92,2.2-42,6-10.27,18.51-12.49,29.54-14.45,3.17-.56,6.17-1.1,8.93-1.8,12-3,23.75-7.32,35.15-11.46,9-3.27,18.35-6.66,27.72-9.41,35.69-10.49,56.59.77,86.11,20.83l.29,1.63c-32.44-22.1-51.65-31.37-86.07-21.26-9.34,2.74-18.65,6.12-27.66,9.39-11.42,4.15-23.23,8.44-35.25,11.49-2.79.7-5.8,1.24-9,1.81-10.81,1.92-23.06,4.11-28.81,13.94-7.4,12.61-4.68,27.06-2.05,41,3.73,19.89,7.6,40.46-19.61,53.75-9,4.39-18.5,4.74-24.82.91-4.16-2.52-6.85-6.74-7.78-12.22-.51-3,.37-6.68,1.39-10.94,1.44-6,3.07-12.84,1.1-19.42-9.54-31.94-47.42-68.48-73.65-78.61-7.62-2.94-15-5.36-22.24-7.7-22.8-7.42-44.33-14.43-64-36.12-9.1-10.05-20.85-24.3-17.88-32,1.58-4.11,6.87-5.74,16.19-5,6.81.56,13.43,4.42,19.82,8.15,8.1,4.73,16.48,9.63,25.33,7.83,12.43-2.52,18.15-12.94,24.21-24A118.9,118.9,0,0,1,1224,94c8.23-11.26,19.31-20.81,30-30,17-14.68,34.58-29.86,42-52.54,4.34-13.25,4.27-30.55,4.21-47.28,0-8-.05-15.61.4-22.48.08-1.2.17-2.39.25-3.55,1.07-15,1.91-26.8-8.53-39.36-14.13-17-37.81-19.67-58.71-22-6.71-.76-13-1.47-18.85-2.62-22.16-4.35-49.74-9.77-56.49-39.56-5.07-22.38,4.34-44,13.43-64.87,5.11-11.75,9.95-22.85,12.25-33.9,5.26-25.22-3.12-41.36-12-58.45-6-11.62-12.29-23.64-14.46-39.1-3.92-27.91,16.57-33.73,36.38-39.35,6.45-1.84,13.12-3.73,18.76-6.37,14.13-6.62,22-16.43,23.49-29.14,3-26-21-59.23-44.37-81.65-21.23-20.35-48.4-37-74.68-53-4.48-2.73-8.83-5.4-13.11-8l1.77-.31c3.88,2.4,7.81,4.81,11.86,7.28,26.33,16.1,53.56,32.75,74.88,53.18" transform="translate(-1103.97 579.53)"/></g></g></g><g transform="translate(0 233.421)"><path d="M-51-226l241.78-42.71L168-398.13-73.83-355.42Z" transform="translate(73.85 398.135)" fill="none"/><g clip-path="url(#h)"><g transform="translate(0.02 0.045)"><path d="M146.58-365c-.93,3.19-1.71,6.66-2.53,10.33-2.67,11.88-5.69,25.36-15,32-7.13,5.08-15.65,3.32-23.89,1.62-9.94-2-19.33-4-25.78,5.82-6.3,9.56-1.09,24.17,3.51,37.06,3.9,11,7.28,20.43,3.54,25.62-2.77,3.85-9,4.73-19.64,2.76C51.6-252.66,31.63-266.69,15.58-278c-4.92-3.46-9.57-6.72-13.65-9.37-26.78-17.36-47-34.26-63.62-53.19-4.22-4.8-8.25-9.79-12.14-14.9l1.27-.23c3.74,4.9,7.61,9.68,11.65,14.29,16.55,18.83,36.69,35.67,63.38,53,4.09,2.66,8.75,5.93,13.69,9.4,16,11.21,35.81,25.16,50.77,27.93,10,1.86,16.14,1.1,18.61-2.34,3.34-4.65-.08-14.24-3.7-24.4C77.13-291,71.8-305.95,78.45-316c6.85-10.41,17-8.31,26.86-6.27,8,1.65,16.32,3.37,23.09-1.46,9-6.38,11.94-19.61,14.56-31.28.83-3.7,1.61-7.19,2.55-10.41,4.27-14.63,11.35-24.62,20-32.24l2.4-.43c-9.32,7.69-16.92,17.83-21.37,33.1" transform="translate(73.83 398.09)"/></g></g></g><g transform="translate(181.1 147.946)"><path d="M191.25,597.59l544.59-96.2-174-985-454.59,96.2Z" transform="translate(-107.25 483.61)" fill="none"/></g><g transform="translate(174.94 114.601)"><path d="M275.11,582.78,924.44,468.07l-174-985L101.11-402.22Z" transform="translate(-101.09 516.955)" fill="none"/><g transform="translate(0)" clip-path="url(#i)"><g transform="translate(50.821 66.715)"><path d="M411.74-350.36c-5.58,8.22-14,11.81-22.85,15.6-8.72,3.72-17.73,7.58-23.83,16.24-7.59,10.78-9.15,23.44-10.65,35.69-1.15,9.33-2.34,19-6.18,27.79-10.91,25-33.82,20-56,15.16-8.59-1.88-16.71-3.65-24.06-3.71-11.3-.08-22.4-1.67-33.14-3.21-29.14-4.18-54.31-7.79-72.8,18.94-13.75,19.87-9.57,25.54-3.79,33.4,3.34,4.53,7.11,9.67,8.06,18.45,1.86,17.13-.23,25.21-3.69,38.59-.59,2.3-1.23,4.77-1.9,7.47-5.5,22.28-4.56,57.63,7.89,82.1,6.22,12.22,14.58,20.2,24.83,23.71,14.92,5.11,28.89,3.28,42.4,1.51,17.49-2.29,35.57-4.66,55.84,7.94C304.22-7,314.52,4,324.49,14.61c1.78,1.9,3.57,3.81,5.36,5.69,7.38,7.75,15.65,15.23,23.64,22.45C364.86,53,376.62,63.66,386.25,75.44,397.09,88.7,404.5,105,411.67,120.72c5.87,12.89,11.94,26.22,19.86,37.81,21.88,32,43.86,31.86,71.7,31.63,7.2,0,14.64-.11,22.52.4,80.78,5.26,150,86.29,169.28,111,26,33.3,40.67,66.31,57.67,104.54q3,6.64,6,13.46c1.43,3.18,2.8,6.66,4.27,10.34,5.86,14.75,12.51,31.48,25,36.29,17.14,6.59,27.63-4.33,38.74-15.9,1-1.07,2.07-2.15,3.12-3.22,17.21-17.58,58.36-36.62,79.11-12,6.76,8,11.6,19.88,15.46,33l-1.1.2c-3.8-12.89-8.56-24.54-15.16-32.37-20.22-24-60.6-5.2-77.52,12.09-1,1.06-2.08,2.14-3.11,3.22-11.36,11.81-22.08,23-39.86,16.14-13-5-19.77-22-25.73-37-1.46-3.66-2.84-7.13-4.25-10.28q-3.06-6.82-6-13.46c-17-38.14-31.61-71.09-57.5-104.26C675,277.73,606.07,197,525.74,191.79c-7.85-.51-15.27-.45-22.45-.39-27.05.21-50.4.4-72.64-32.15-8-11.69-14.08-25.08-20-38-7.14-15.66-14.51-31.86-25.24-45-9.58-11.71-21.3-22.31-32.63-32.55-8-7.24-16.3-14.73-23.71-22.52q-2.69-2.84-5.36-5.7C313.82,4.9,303.57-6,291.39-13.62,271.45-26,253.56-23.67,236.25-21.4c-13.63,1.78-27.72,3.63-42.87-1.56-10.56-3.61-19.14-11.79-25.52-24.32-12.6-24.77-13.56-60.53-8-83.05.66-2.71,1.3-5.18,1.9-7.48,3.54-13.69,5.48-21.23,3.65-38.11-.91-8.41-4.57-13.39-7.81-17.79-5.88-8-10.53-14.31,3.75-34.94,18.86-27.26,45.54-23.44,73.8-19.39,10.7,1.54,21.76,3.12,33,3.21,7.46.05,15.62,1.84,24.27,3.73,21.75,4.76,44.24,9.68,54.79-14.52,3.76-8.63,4.94-18.19,6.07-27.43,1.53-12.4,3.11-25.23,10.87-36.25,6.28-8.92,15.44-12.83,24.29-16.62s17-7.25,22.38-15.21c11.79-17.38,2.69-37.73-8.9-57.13A254.879,254.879,0,0,0,371.45-450l1.37-.24a259.106,259.106,0,0,1,30.05,41.3c11.82,19.79,21.07,40.57,8.88,58.55" transform="translate(-151.911 450.24)"/></g></g></g><path d="M444.35-318.91c-9.2,6.81-19.63,14.53-25.61,27.85-14.12,31.47,2.41,49.68,21.56,70.76l3.12,3.46c.42.46,41.16,45.87,33.92,59.93-2.57,5-10.41,5.19-24,.66-18.23-6.1-33.67-12.67-48.61-19-13.57-5.77-27.6-11.74-44-17.5-11.44-4-32.76-11.53-40.76,4.57-3.49,7-2.3,13.23-1.25,18.7,1.64,8.53,3.05,15.89-14.48,21.53-8,2.58-17.75.5-27.17-1.51-7.95-1.7-16.19-3.45-23.26-2.36-15.31,2.35-30,11-44.85,26.35s-21.31,31.77-17.07,43C195.49-73.08,206-68,222.44-67.68c9.41.17,18.28-.84,26.85-1.83,22-2.51,42.69-4.89,64.76,14.63C334-37.29,350.39-12.95,366.3,10.58c6.75,10,13.12,19.42,19.77,28.41q4,5.4,8,10.92c19.17,26.17,39,53.23,62.47,73.3,22.18,19,44.81,20.35,68.78,21.84,17.15,1.06,34.88,2.16,52.6,10.19,25.18,11.41,43.35,30.92,62.59,51.57q3.76,4,7.59,8.11c4.58,4.86,9.22,9.91,13.7,14.79,11.74,12.79,23.88,26,36.71,37.55,19.69,17.71,43.55,42.54,60.1,60.26,9.1,9.74,14,20.29,18.63,30.48,6.6,14.39,12.85,28,30.49,35.64,18.25,7.92,45.24,2.85,71.35-2.06,23.77-4.47,46.21-8.69,62.73-3.93,29.14,8.4,39.65,36.19,43,69.76l-1.11.2c-3.27-33.15-13.58-60.54-42.09-68.76-16.28-4.68-38.61-.49-62.26,4-26.25,4.93-53.4,10-71.94,2-18.1-7.85-24.41-21.7-31.14-36.32-4.64-10.1-9.44-20.55-18.4-30.14-16.53-17.7-40.36-42.5-60-60.18-12.88-11.57-25-24.82-36.8-37.63-4.47-4.88-9.1-9.92-13.69-14.78q-3.83-4.06-7.59-8.11c-19.16-20.56-37.25-40-62.21-51.3-17.55-7.95-35.18-9-52.23-10.1-24.15-1.5-47-2.91-69.43-22.11C432.3,104,412.44,76.9,393.24,50.67q-4-5.51-8-10.92c-6.67-9-13.34-18.9-19.8-28.46-15.86-23.46-32.26-47.72-52-65.21-21.69-19.18-41.25-16.94-63.91-14.35a200.818,200.818,0,0,1-27,1.84c-21.37-.38-29-8.7-31.56-15.6-4.43-11.76,2.21-28.77,17.31-44.39s29.9-24.28,45.44-26.66c7.26-1.12,15.58.66,23.63,2.37,9.29,2,18.89,4,26.65,1.54,16.57-5.33,15.38-11.54,13.73-20.13-1.09-5.68-2.32-12.12,1.36-19.54,8.42-16.95,30.29-9.26,42-5.13,16.41,5.78,30.45,11.75,44,17.54,14.92,6.34,30.34,12.91,48.52,19,12.82,4.28,20.46,4.24,22.71-.12,5.66-11-22.41-45.9-33.71-58.43l-3.13-3.45c-19.46-21.43-36.26-39.95-21.79-72.21,6.11-13.6,16.66-21.42,26-28.31,16.88-12.49,30.2-22.36,12.1-58.92a662.009,662.009,0,0,0-45.88-77.89l1.23-.22a663.854,663.854,0,0,1,45.63,77.55c18.6,37.55,4.22,48.2-12.42,60.52" transform="translate(73.85 631.556)"/><g transform="translate(194.449 109.031)"><path d="M294.62,579.33,956,462.5l-174-985L120.62-405.67Z" transform="translate(-120.599 522.525)" fill="none"/><g transform="translate(0)" clip-path="url(#j)"><g transform="translate(56.939 68.535)"><path d="M429.09-398.63c1,1.58,2.11,3.23,3.24,4.92,9.11,13.65,20.44,30.62,13.72,47.43-3.61,9-11.77,12.81-19.65,16.47-4.23,2-8.22,3.82-11.52,6.41-17.64,13.89-26.82,39-24.56,67.07.43,5.38,6.19,11.41,11.76,17.25,6.45,6.77,12.55,13.16,11.27,19-1.2,5.45-3.76,9.22-7.61,11.22-10.9,5.66-29.73-3.71-43.48-10.55-3.77-1.87-7-3.49-9.57-4.52-18-7.28-42.1,1-63.37,8.23-11.24,3.84-21.86,7.46-30.36,8.37-5.36.56-8.51,8.48-11.56,16.13-2.27,5.71-4.62,11.61-8,14.66-2.64,2.43-6.31,2.8-9.84,3.16-2.79.29-5.42.55-7.35,1.78-14.53,9.28-22.38,23.3-31.46,39.53l-.86,1.53c-11.46,20.46-14.49,44.68-7.71,61.7,5,12.64,15.32,21.26,29.75,24.92,13.75,3.49,27.64,2.16,41.07.86,20.23-2,41.15-4,61.48,10.79,13.9,10.08,25.29,26,36.31,41.34,5.75,8,11.19,15.62,17,22.45,5.25,6.21,10.93,12.35,16.42,18.29,10.1,10.93,20.54,22.23,29.09,34.7,5.75,8.39,10.21,18.48,14.51,28.24,8.06,18.27,16.39,37.16,33.59,45.54,11.06,5.4,23.94,5.59,36.39,5.79,7.74.12,15.75.24,23.15,1.64,20.18,3.8,41.27,11.41,62.7,22.62,33.7,17.63,67.86,44.54,104.45,82.27,27.42,28.28,45.88,54.46,63.71,90.35,1.2,2.43,2.43,4.95,3.69,7.53,12.6,25.92,28.29,58.17,55.51,62.5,15.78,2.51,31.48-4.72,46.66-11.71,12.41-5.71,25.24-11.61,38.22-12.34h.43c22.17-1.2,35.35,1.88,44,10.28,8.4,8.13,12.8,21.62,14.73,45.11v.36l-1.11.2v-.5c-1.89-23.13-6.18-36.36-14.33-44.24-8.43-8.16-21.37-11.15-43.22-10h-.42c-12.8.72-25.54,6.59-37.86,12.26-15.32,7.05-31.16,14.34-47.24,11.79-27.81-4.43-43.65-37-56.39-63.18-1.25-2.58-2.48-5.1-3.68-7.52-17.76-35.77-36.15-61.85-63.48-90-36.49-37.63-70.56-64.47-104.14-82-21.34-11.16-42.33-18.73-62.4-22.52-7.31-1.37-15.28-1.5-23-1.62-12.56-.19-25.56-.39-36.84-5.89-17.59-8.57-26-27.69-34.17-46.17-4.28-9.71-8.71-19.74-14.39-28-8.5-12.39-18.91-23.66-29-34.55-5.5-6-11.18-12.11-16.45-18.34-5.82-6.87-11.52-14.83-17-22.53-11-15.29-22.29-31.09-36-41-20-14.5-39.8-12.59-60.76-10.58-13.51,1.3-27.49,2.64-41.41-.89C197-46.48,186.4-55.36,181.2-68.41c-6.92-17.38-3.87-42,7.78-62.84l.86-1.53c9.16-16.36,17.07-30.5,31.83-39.92,2.14-1.36,4.88-1.64,7.78-1.94,3.38-.34,6.87-.7,9.26-2.89,3.14-2.88,5.44-8.65,7.66-14.23,3.17-8,6.45-16.2,12.43-16.83,8.39-.89,19-4.5,30.14-8.32,21.45-7.33,45.75-15.63,64.09-8.21,2.58,1.05,5.86,2.68,9.65,4.57,13.55,6.73,32.1,16,42.55,10.54,3.54-1.85,5.91-5.35,7-10.43s-5-11.54-10.93-17.76c-5.73-6-11.65-12.21-12.12-18.07-2.29-28.54,7.06-54,25-68.15,3.4-2.67,7.63-4.63,11.72-6.53,7.7-3.58,15.66-7.27,19.1-15.88,6.46-16.14-4.65-32.79-13.58-46.17-1.13-1.7-2.23-3.35-3.26-4.94-4.45-6.9-8.88-14.11-13.56-21.76-6.85-11.17-14-22.83-21.66-34.08l1.23-.21c7.53,11.11,14.59,22.61,21.35,33.63,4.68,7.63,9.1,14.84,13.54,21.73" transform="translate(-177.538 453.99)"/></g></g></g><g transform="translate(286.755 98.634)"><path d="M386.92,563l627.91-110.92-174-985L212.92-422Z" transform="translate(-212.905 532.922)" fill="none"/><g transform="translate(0)" clip-path="url(#k)"><g transform="translate(54.017 73.712)"><path d="M459.56-409.77c12.2,14.18,24.81,28.86,33.15,46.34,16,33.45.7,47.44-15.46,62.25-9.66,8.85-19.64,18-24.89,31.94-14.28,37.92,15.29,60.09,41.38,79.64,2.37,1.78,4.7,3.53,6.95,5.26,16.35,12.54,41.1,38.73,37.89,55.63C537-120.33,529-115.1,514.7-113.16c-20.62,2.79-40.32-9.94-59.38-22.25C435.8-148,415.62-161.06,395-156.64c-11.38,2.45-15.5,10.23-19.85,18.48-3.2,6-6.5,12.28-12.88,16.23-8.59,5.31-17.71,2.56-26.53-.1-2-.59-4-1.2-6-1.7-33.32-8.55-54.72-8.46-60.25.27-2.75,4.36-1.69,11,3.16,19.79,5.28,9.53,17.65,15.25,28.57,20.3,5.39,2.49,10.49,4.84,14.37,7.46,19.44,13.11,33.67,32.3,46.22,49.23C371.64-13.46,381.53.2,391.1,13.41c17.45,24.09,35.49,49,53.91,72.5,30.86,39.37,60,39.58,100.29,39.86l7.81.07c48.75.52,69.94,26.6,102,66.06,22.23,27.35,47.15,46.14,73.53,66,6.15,4.64,12.51,9.43,18.85,14.35,16,12.39,24.21,27.66,32.94,43.82,5.51,10.2,11.21,20.76,19.12,30.95,22.67,29.18,58.29,28.19,93.41,22.78,6.74-1,14-2.85,21.69-4.78,31.81-8,67.87-17,86.18,24.39,8.07,18.26,10.19,40.71,10.37,63.3l-1.12.19c-.17-22.52-2.25-44.88-10.25-63C982,349.49,946.37,358.4,915,366.27c-7.72,1.93-15,3.76-21.78,4.8-35.44,5.46-71.41,6.42-94.45-23.23-8-10.27-13.71-20.87-19.25-31.13-8.66-16-16.84-31.18-32.59-43.41-6.33-4.91-12.69-9.71-18.84-14.35-26.44-19.94-51.42-38.77-73.75-66.24-31.86-39.21-52.92-65.11-101.16-65.63l-7.8-.06c-40.62-.29-70-.5-101.17-40.32-18.43-23.51-36.49-48.44-53.94-72.54C380.67,1,370.79-12.7,361-25.92c-12.49-16.84-26.66-35.94-45.92-48.93-3.81-2.57-8.86-4.9-14.21-7.38-11.08-5.12-23.65-10.93-29.12-20.83-5.12-9.24-6.17-16.35-3.14-21.14,5.88-9.28,27.1-9.53,61.38-.74,2,.51,4,1.13,6,1.72,8.6,2.59,17.5,5.27,25.7.2,6.13-3.79,9.36-9.9,12.48-15.8,4.28-8.11,8.71-16.49,20.57-19,21-4.52,41.43,8.64,61.13,21.37,18.89,12.21,38.42,24.85,58.66,22.09,13.76-1.87,21.49-6.79,23-14.62,3.09-16.3-21.3-42-37.4-54.32q-3.37-2.58-6.94-5.24c-25.15-18.86-56.45-42.32-41.82-81.19,5.35-14.2,15.44-23.45,25.19-32.38,16.5-15.13,30.74-28.19,15.21-60.75-8.26-17.32-20.81-31.93-33-46.05-4.6-5.34-9.35-10.87-13.75-16.41A274,274,0,0,1,422.64-459l1.19-.21a270.72,270.72,0,0,0,22,33.08c4.39,5.53,9.13,11,13.71,16.38" transform="translate(-266.922 459.21)"/></g></g></g><path d="M537.81-355l.4.73c9.84,18.1,22.09,40.62,13.95,62.14-3,7.84-7.1,12.6-11.11,17.22-6,6.92-11.18,12.9-11.07,27.53.32,40.43,42.72,74.78,65.5,93.23l2.07,1.67c14.59,11.76,41.74,33.66,41.62,53.28,0,7.21-3.82,13.44-11.24,18.54-13.79,9.47-39,5.56-59.28,2.43-7.1-1.1-13.8-2.14-19.25-2.5-4.18-.27-8.72-.93-13.53-1.62-13.12-1.9-28-4-38.82,1.55-5.59,2.89-9,7.87-12.32,12.68C481-62.66,477.09-57,470.05-54.67c-12.62,4.16-26.39-3.19-39.71-10.31-13.62-7.28-26.47-14.14-38.2-9.82-6.65,2.45-10.4,6.45-11.14,11.9-3,22.36,43.56,64.58,63.46,82.61,3.58,3.24,6.41,5.8,8.06,7.43C458.2,32.76,463.07,38,467.77,43c19.44,20.86,32.28,34.64,66.2,35.49,5.35.14,10.57.17,15.62.19,29.13.15,54.28.29,82.13,20.47,28.34,20.54,49.2,49.82,69.37,78.13,4.71,6.62,9.58,13.46,14.49,20.11,22.81,30.91,48.65,51.15,76,72.59,4.66,3.64,9.38,7.34,14.16,11.15,8.46,6.73,15.18,17.62,21.69,28.14,12.11,19.61,23.55,38.13,45,31,10.4-3.44,19.86-11.18,29.86-19.37,11.39-9.32,23.17-19,36.86-22.22,33.62-8,75.12,10.88,100.93,46,22.15,30.11,20.63,53.62,18.54,86.16-.29,4.39-.58,8.93-.82,13.65l-1.14.2c.25-4.85.54-9.49.83-14,2.08-32.25,3.58-55.55-18.28-85.26-25.53-34.71-66.57-53.41-99.79-45.5-13.46,3.2-25.14,12.77-36.44,22-10.08,8.25-19.61,16-30.19,19.54-22.28,7.36-34.51-12.42-46.33-31.55-6.44-10.43-13.1-21.21-21.39-27.81-4.78-3.81-9.5-7.5-14.16-11.15-27.43-21.48-53.33-41.78-76.25-72.83-4.91-6.66-9.79-13.51-14.5-20.12-20.11-28.24-40.9-57.43-69.08-77.85-27.56-20-52.56-20.1-81.5-20.25-5,0-10.28-.06-15.64-.19C499.62,78.9,486.64,65,467,43.9c-4.7-5-9.56-10.25-15.22-15.85-1.63-1.61-4.45-4.16-8-7.39C422,1,376.74-40.06,379.89-63.14c.81-5.92,4.79-10.24,11.86-12.85,12.15-4.47,25.82,2.83,39,9.89s26.69,14.26,38.9,10.23c6.7-2.21,10.32-7.48,14.15-13.05,3.38-4.93,6.88-10,12.71-13,11.11-5.74,26.15-3.57,39.42-1.65,4.79.69,9.31,1.35,13.45,1.62,5.5.36,12.22,1.4,19.33,2.5,20.09,3.11,45.1,7,58.55-2.26,7.1-4.86,10.71-10.76,10.75-17.54.11-19-26.72-40.59-41.14-52.22l-2.07-1.67c-23-18.59-65.66-53.19-66-94.27-.12-15.12,5.46-21.56,11.37-28.37,3.93-4.53,8-9.23,10.89-16.86,7.92-20.95-3.65-42.23-13.87-61l-.4-.74c-16.93-31.14-37.77-60.21-57.92-88.32-5.49-7.66-11.06-15.44-16.59-23.3l1.24-.22c5.4,7.68,10.85,15.29,16.22,22.78,20.17,28.14,41,57.25,58,88.45" transform="translate(73.85 631.556)"/><g transform="translate(427.63 86.541)"><path d="M527.8,538.14,1083.24,440l-174-985L353.8-446.86Z" transform="translate(-353.781 545.015)" fill="none"/><g transform="translate(0)" clip-path="url(#l)"><g transform="translate(74.218 75.875)"><path d="M535.11-386.31c3,4.16,6.3,8.45,9.78,13,18.72,24.36,39.93,52,35.32,83.2-1.22,8.23-5,15.13-8.58,21.82s-7.25,13.37-8.4,21.3c-2.6,18,4.58,37.33,21.94,59.08,3.69,4.62,10.52,11.33,18.43,19.11,23.78,23.36,59.72,58.66,56.31,83.21-1.24,8.93-7.6,15.85-18.91,20.55-13.73,5.71-30.92,5-47.54,4.37-6.48-.26-12.61-.5-18.34-.35-17.36.45-26.37,1.09-41.35,10.8-2.73,1.77-5.09,3.49-7.17,5-7.79,5.67-12.93,9.41-25.76,8.55-6-.4-13.29-2.63-21-5-14.79-4.53-31.54-9.68-42.4-1.94-5.51,3.93-8.33,8.83-8.38,14.58-.16,18,26.65,40.58,35.46,48C490.46,40.85,509.77,42.56,539,45.13l6.9.62c26,2.39,59,15.19,100.85,39.12,33.11,18.92,50.17,46.9,69.94,79.29l2.66,4.35c21.73,35.55,49.76,62,79.43,89.93q6.54,6.17,13.08,12.38c2.93,2.79,6,5.91,9.25,9.21,20.52,20.84,46,46.78,69.54,25.93,4-3.58,6.85-6.46,9.34-9,5.83-6,9.69-9.91,22.48-15.48,13.85-6,32-6,47.52,0,7.21,2.81,13.81,5,20.18,7.16,21.57,7.24,38.6,13,56.5,34.84,27.18,33.23,32,82.72,31.38,117.45l-1.13.2c.63-34.53-4.07-83.84-31.07-116.84-17.67-21.61-34.57-27.28-56-34.46-6.39-2.14-13-4.36-20.24-7.19-15.21-5.93-33.12-5.94-46.73,0-12.61,5.49-16.2,9.16-22.15,15.24-2.5,2.56-5.34,5.46-9.4,9.06-24.23,21.5-50.16-4.85-71-26-3.25-3.29-6.31-6.4-9.22-9.18q-6.52-6.23-13.07-12.37c-29.74-28-57.83-54.5-79.66-90.2l-2.65-4.35c-20.49-33.57-36.66-60.08-69.49-78.86-41.71-23.85-74.56-36.6-100.42-39L539,46.36c-29.44-2.59-48.88-4.3-75.07-26.4C448.4,6.89,427.82-12.42,428-29.1c0-6.17,3-11.41,8.86-15.56,11.26-8,28.28-2.81,43.29,1.8,7.62,2.33,14.81,4.54,20.74,4.94,12.46.85,17.48-2.82,25.09-8.36,2.09-1.53,4.47-3.26,7.22-5,15.22-9.85,24.33-10.51,41.87-11,5.77-.15,11.9.09,18.41.35,16.51.65,33.58,1.33,47.12-4.3,10.92-4.54,17-11.14,18.23-19.62,3.31-23.86-32.34-58.88-55.92-82.06-8-7.8-14.8-14.54-18.54-19.22-17.61-22.05-24.88-41.72-22.22-60.13,1.18-8.16,4.92-15.06,8.53-21.72s7.27-13.4,8.45-21.4c4.52-30.65-16.5-58-35.05-82.17-3.49-4.54-6.78-8.83-9.8-13-16.38-22.68-32-46.88-47-70.29l-8.44-13.09,1.21-.21,8.13,12.61c15.06,23.39,30.64,47.58,47,70.23" transform="translate(-427.999 469.14)"/></g></g></g><g transform="translate(465.551 84.302)"><path d="M565.73,531.44,1096,437.78l-174-985L391.73-453.56Z" transform="translate(-391.702 547.253)" fill="none"/><g transform="translate(0)" clip-path="url(#m)"><g transform="translate(78.761 75.883)"><path d="M600.56-315.71l2.26,3.18c10.11,14.18,19.67,27.58,13.09,45.81-2.24,6.2-5.82,10.18-9.28,14-5.14,5.72-10,11.11-10.07,23.21-.27,43.31,37.78,69.84,68.35,91.15,3.37,2.36,6.57,4.58,9.61,6.77,16.25,11.65,24.18,22.54,24.24,33.29C698.85-81.13,679-67.1,657-53c-17,10.85-30.47,11.33-46,11.88a164.452,164.452,0,0,0-25.44,2.3c-8.37,1.55-15.78,5.76-23,9.84-7,4-14.23,8.09-22.36,9.74-3.75.76-11.11-.09-19.63-1.08-17.19-2-40.72-4.7-47.17,5-2.3,3.47-2.29,8.44,0,14.78,6.26,17.05,45.23,23.6,71,27.93,8.48,1.43,15.18,2.55,18.9,3.75,36.18,11.61,77.12,31.37,115.29,55.65,30.93,19.67,47.66,49,65.37,80,2.82,4.93,5.74,10,8.72,15.12,21.66,36.92,50.64,67.83,77.5,82.68a100.75,100.75,0,0,1,10.84,7.59c10.29,7.82,23.1,17.55,31.08,12.16,4.44-3,6.08-7.23,7.82-11.7,2-5,4-10.26,10.3-13.56,21.5-11.23,65-7.08,86.78.84,34.11,12.43,72.43,43.88,93.18,76.5,18.6,29.22,18.62,66.5,18.27,102.77l-1.13.2c.36-36.15.38-73.33-18-102.29-20.62-32.4-58.69-63.65-92.59-76-21.06-7.67-65-11.83-86-.89-6,3.11-7.81,7.9-9.78,13-1.73,4.44-3.51,9-8.24,12.23-8.59,5.81-21.74-4.18-32.3-12.21a100.646,100.646,0,0,0-10.7-7.5c-27-15-56.19-46-78-83.15-3-5.1-5.9-10.2-8.72-15.13-17.63-30.86-34.29-60-65-79.51-38.08-24.22-78.94-43.94-115-55.53-3.66-1.17-10.32-2.29-18.75-3.71-26-4.38-65.43-11-71.94-28.73-2.48-6.78-2.45-12.14.09-16,6.8-10.23,29.72-7.59,48.15-5.46,8.43,1,15.72,1.83,19.31,1.09,8-1.61,15.14-5.69,22.06-9.63,7.24-4.11,14.73-8.37,23.27-9.95,9.41-1.75,17.63-2,25.59-2.32,15.42-.54,28.73-1,45.54-11.72,20.92-13.32,41.34-27.71,41.26-44.19-.06-10.28-7.81-20.81-23.7-32.21-3-2.18-6.23-4.41-9.6-6.76-29.19-20.35-69.17-48.23-68.9-92.25.08-12.6,5.08-18.16,10.37-24.05,3.39-3.77,6.89-7.67,9.05-13.64,6.34-17.57-3-30.68-12.91-44.57L599.69-315c-24-34-48-68.82-71.29-102.54l-37.11-53.61,1.24-.22q18.54,26.72,36.75,53.14c23.26,33.71,47.33,68.57,71.28,102.52" transform="translate(-470.462 471.37)"/></g></g></g><g transform="translate(557.258 80.993)"><path d="M657.43,515.24l457.29-80.78-174-985L483.43-469.76Z" transform="translate(-483.408 550.563)" fill="none"/><g transform="translate(0)" clip-path="url(#n)"><g transform="translate(25.732 75.993)"><path d="M575.36-384.37c18.21,26.79,38.14,42.77,61.21,61.29,4.69,3.76,9.55,7.65,14.54,11.76,9.64,7.93,24.34,33.76,24.11,51.83-.11,8.73-5.87,12.38-11.44,15.92-3.55,2.25-7.22,4.59-9.58,8.23-11.07,17.09-6.75,36.89-1.18,50.48a119.149,119.149,0,0,0,30.5,42.38c5.78,5,17,10.89,28.86,17.15,24.57,13,52.41,27.64,55.86,44.26,1.1,5.29.51,9.5-1.76,12.5-5.41,7.19-19.6,6.31-31,5.61A84.381,84.381,0,0,0,723-63.19c-20.47,2.28-34.24,16-47.57,29.26C662.83-21.41,651-9.58,634-6.79c-4.64.77-12-.92-20.43-2.87-14.5-3.35-30.94-7.15-39.33.14C570.73-6.46,569-1.74,568.83,4.9c-.4,20.09,26.92,30.81,45,37.89,3.17,1.21,5.9,2.32,8.17,3.32,7,3,14.05,6.08,20.91,9,20.73,8.83,42.16,18,62.49,29.08,31,17,36.13,30.83,47.3,61.22l2.11,5.73c25.07,67.68,68.73,98.92,126.27,90.41,35.47-5.25,73.24-1.63,106.36,10.2,37.41,13.35,68.84,36.94,90.91,68.21,20.61,29.21,29.83,59.11,31.79,103.2.17,3.9.19,7.93.12,12.07l-1.12.2c.07-4.21.06-8.31-.12-12.27-2-43.79-11.09-73.48-31.55-102.47-50.39-71.4-134.39-87.06-196.19-77.9-58.13,8.61-102.21-22.93-127.5-91.21-.73-2-1.44-3.89-2.11-5.73-11.39-31-16.11-43.8-46.73-60.55-20.28-11.08-41.69-20.21-62.39-29-6.87-2.92-14-6-20.92-9-2.27-1-5-2.06-8.14-3.3-18.41-7.21-46.22-18.11-45.8-39.14.14-6.93,2.1-12.09,5.83-15.33,8.77-7.63,25.48-3.77,40.23-.37,8,1.85,15.58,3.61,20,2.86,16.62-2.74,28.38-14.45,40.83-26.85,13.45-13.4,27.35-27.25,48.18-29.56a82.719,82.719,0,0,1,12.69.22c11.16.69,25,1.55,30.12-5.19,2.06-2.74,2.56-6.48,1.53-11.44-3.32-16-32.09-31.18-55.21-43.37-12.45-6.57-23.2-12.24-29.07-17.3A120.38,120.38,0,0,1,652-184.39c-5.69-13.9-10.09-34.15,1.27-51.71,2.49-3.85,6.27-6.24,9.92-8.56,5.55-3.53,10.8-6.86,10.9-14.91.23-17.69-14.18-43-23.63-50.77-5-4.1-9.84-8-14.52-11.75-23.16-18.58-43.15-34.62-61.47-61.56-16.82-24.76-34.88-49.26-52.33-73q-6.46-8.76-13-17.7l1.25-.22L523-457.36c17.47,23.7,35.53,48.22,52.37,73" transform="translate(-509.14 474.57)"/></g></g></g><g transform="translate(1068.2 71.556)"><path d="M994.35-560Z" transform="translate(-994.35 560)" fill="none"/><g clip-path="url(#o)"><g transform="translate(-280.461 23.18)"><path d="M880.73-522.54a114.673,114.673,0,0,0,14.34,9.12c9.54,5.45,19.41,11.08,25,20,7.26,11.68,6.49,23.73,5.66,36.48a127.309,127.309,0,0,0-.3,17.9c.76,9.83,3.26,20.7,5.68,31.2,6.87,29.86,14,60.74-16.15,75A70.059,70.059,0,0,1,904.21-329c-7,2-13,3.77-18.77,11.07-5,6.3-6.89,15.27-8.69,24-1.33,6.45-2.72,13.13-5.4,18.61-6.44,13.17-19.22,18.09-31.58,22.84C825.53-247,813.23-242.3,813-226.16c-.11,6.75,3.2,12.94,6.7,19.49,3.82,7.15,7.77,14.55,7.14,23-.59,8-4.88,14-9,19.84-4,5.58-7.7,10.85-8.43,17.63-3.78,35.32,44.1,56.76,69.83,68.29,2.69,1.21,5.17,2.31,7.35,3.33,2.73,1.28,7.89,3.34,14.42,6,26.71,10.66,71.51,28.58,77.1,41.65a6,6,0,0,1,.31,4.42c-11.46,33-120.94,10.91-122,10.67-30.94-6.69-92-12.55-124.61,7.93C719.65,3.71,714,11.56,715.05,19.44c2.31,17.73,37.46,31.15,48.17,34.84,9.52,3.27,20.33,6,31.77,8.87,31.78,8,67.82,17,88.23,41.84,11.85,14.39,9.9,25.94,8.33,35.23-1.83,10.87-3.15,18.72,18.22,25.8,8.78,2.91,18,5.81,27.81,8.88,58.18,18.25,130.58,41,171.28,87.77,29.33,33.72,42.62,90.46,55.49,145.34q2,8.57,4,17l-1.1.2q-2-8.37-4-16.91c-12.82-54.71-26.08-111.29-55.19-144.76C1067.6,217,995.36,194.3,937.32,176.09c-9.79-3.08-19-6-27.82-8.89-22.4-7.42-20.92-16.17-19-27.26,1.6-9.48,3.41-20.23-8-34.14-20.17-24.49-56-33.5-87.62-41.45-11.47-2.88-22.3-5.6-31.86-8.89-13.95-4.81-46.65-17.92-49-35.9-1.1-8.42,4.71-16.68,17.25-24.56,32.88-20.64,94.27-14.78,125.36-8.06C879.6-8.08,967.7,4.84,977.37-23a4.67,4.67,0,0,0-.27-3.44c-5.38-12.56-51.63-31.08-76.48-41-6.55-2.62-11.71-4.69-14.48-6-2.17-1-4.64-2.11-7.33-3.32-26-11.65-74.45-33.34-70.57-69.63.77-7.12,4.77-12.77,8.65-18.23,4.05-5.7,8.23-11.59,8.8-19.2.6-8-3.26-15.26-7-22.23-3.42-6.42-7-13.05-6.85-20.17.27-17,13.5-22.06,27.51-27.44,12.17-4.69,24.75-9.53,31-22.3,2.61-5.34,4-11.93,5.3-18.3,1.83-8.83,3.72-18,8.92-24.47,6-7.57,12.47-9.45,19.29-11.44a67.18,67.18,0,0,0,10.58-3.75c29.29-13.87,22.3-44.23,15.54-73.6-2.43-10.56-5-21.48-5.71-31.41a127,127,0,0,1,.3-18.09c.81-12.53,1.57-24.36-5.46-35.67-5.39-8.68-15.13-14.24-24.54-19.62a115.994,115.994,0,0,1-14.49-9.22c-3-2.34-5.56-4.55-8.08-6.69a111.227,111.227,0,0,0-10.54-8.31l1.67-.29c3,2.08,6.1,4.71,9.54,7.62,2.51,2.14,5.11,4.34,8.05,6.67" transform="translate(-713.889 536.82)"/></g></g></g><path d="M792.4-492.27c-32.43,26.2-67.57,23.85-104.77,21.36-4.29-.29-8.63-.58-13-.83-10.19-.59-20-.24-29.49.1-24.32.86-47.48,1.67-70.39-14.25l1.62-.29c22,14.93,43.92,14.17,68.69,13.3,9.51-.34,19.34-.69,29.58-.1,4.37.25,8.71.54,13,.83,37,2.47,71.94,4.82,104.07-21.14,6.92-5.59,13.09-12.69,19.06-19.56,5.34-6.15,10.84-12.44,16.9-17.72L830-531c-6.66,5.48-12.65,12.34-18.44,19-6,6.91-12.21,14-19.2,19.7" transform="translate(73.85 631.556)"/><path d="M930-536.38c17.85,3.7,36.29,7.52,48.35,25.31,12.76,18.83,7.59,35.2,2.12,52.53-.87,2.77-1.78,5.64-2.62,8.54-4.82,16.61-3.26,30-1.62,44.15,1,8.75,2.08,17.82,1.74,28.23-.15,4.52.17,10.28.5,16.38.78,14.26,1.66,30.42-2.7,39.23-6,12.23-16.22,12.47-26.06,12.71-7.08.17-14.42.34-20.29,4.94-9.68,7.58-11.79,19.56-14,32.24-1.92,10.86-3.91,22.08-11.08,30.27-4.25,4.86-9.54,7.19-14.65,9.45-8.61,3.79-16.05,7.07-16.85,21.23a69.33,69.33,0,0,0,1.29,15.61c1,6.08,2,12.37.8,19.81-.58,3.6-2.64,5.37-4.62,7.08-2.28,2-4.65,4-5,9-.95,13.46,12.09,26.29,21.62,35.67,1.65,1.62,3.21,3.16,4.55,4.56l3.7,3.86c23.64,24.73,50.43,52.75,80.12,66.94,3.5,1.67,11.65,4.34,21.08,7.43,24.33,8,57.66,18.88,62.53,28.43,2.36,4.62,2.71,8.48,1,11.47-5.53,10-32.26,7.63-48.23,6.25-3.73-.32-7-.6-8.93-.63-13.94-.18-28.31.76-42.21,1.66-19.72,1.28-40.1,2.61-59.74.81C891.54,6,882,3.91,871.79,1.74c-23.12-4.94-47-10-67.84-.39C791.51,7.12,785.48,13.41,786,20c1,12.33,24.67,24.35,44.59,30.9,27.3,9,55.42,25.42,79.17,46.27,6.72,5.91,9.2,13.72,11.6,21.27,2.17,6.86,4.42,13.94,9.83,19.74,16.33,17.51,45.19,27.06,64.28,33.38,27.78,9.19,59.61,26,81.1,42.83q3.18,2.5,6.56,5.13c29.84,23.24,70.71,55.07,87,91.39,7.5,16.67,9.21,38.63,10.87,59.87,1.23,15.91,2.52,32.37,6.23,46.32.38,1.43.77,2.86,1.16,4.29l-1.1.2c-.38-1.4-.76-2.79-1.13-4.19-3.75-14.07-5-30.59-6.28-46.57-1.65-21.12-3.35-43-10.74-59.41-16.2-36-56.93-67.74-86.67-90.9l-6.56-5.12c-21.39-16.76-53.09-33.5-80.75-42.65-19.21-6.36-48.23-16-64.76-33.69-5.62-6-7.92-13.26-10.14-20.25-2.45-7.72-4.76-15-11.21-20.67-23.63-20.76-51.61-37.12-78.78-46.05-4.5-1.48-44-14.94-45.43-32-.61-7.21,5.64-13.91,18.56-19.9,21.2-9.8,45.27-4.65,68.6.33,10.13,2.16,19.69,4.21,28.93,5.06,19.57,1.78,39.91.46,59.59-.82,13.92-.9,28.32-1.84,42.28-1.66,2,0,5.11.29,9,.63C1026.45,5,1053.8,7.38,1059-2c1.44-2.59,1.08-6-1-10.22-4.64-9.08-39.06-20.35-61.84-27.81-9.86-3.23-17.64-5.78-21.21-7.48C945-61.75,918.14-89.86,894.42-114.66l-3.69-3.86c-1.33-1.39-2.88-2.92-4.53-4.54-9.71-9.56-23-22.64-22-36.73.39-5.56,3-7.85,5.4-9.88,1.92-1.64,3.72-3.2,4.23-6.36,1.18-7.21.22-13.12-.8-19.37a71.306,71.306,0,0,1-1.31-15.91c.85-14.9,8.95-18.47,17.52-22.25,5-2.21,10.19-4.49,14.29-9.17,7-7.94,8.91-19,10.8-29.68,2.18-12.35,4.44-25.13,14.46-33,6.14-4.81,13.64-5,20.89-5.16,10-.24,19.39-.47,25.15-12.11,4.2-8.5,3.33-24.47,2.57-38.56-.34-6.14-.66-11.94-.5-16.51.33-10.31-.71-19.32-1.73-28-1.66-14.31-3.24-27.81,1.66-44.68.85-2.92,1.75-5.79,2.63-8.57,5.6-17.75,10.44-33.07-2-51.35-11.78-17.38-30-21.16-47.62-24.81-2.82-.58-5.74-1.19-8.54-1.84a105.156,105.156,0,0,1-20.09-6.57l2.14-.38a106.672,106.672,0,0,0,18.13,5.74c2.79.64,5.7,1.25,8.52,1.83" transform="translate(73.85 631.556)"/><g transform="translate(703.633 106.737)"><path d="M634.47-469.15l165.2-29.18L795-524.8,629.8-495.62Z" transform="translate(-629.783 524.818)" fill="none"/><g clip-path="url(#p)"><g transform="translate(0.017 0.018)"><path d="M741.71-488.54c-21.79,1.88-71.7,4.37-111.91-7.08l2.77-.48c39.57,10.59,87.74,8.16,109,6.32,29.81-2.57,42.47-14.66,52-34.77l1.43-.25c-9.71,21-22.47,33.6-53.29,36.26" transform="translate(-629.8 524.8)"/></g></g></g><path d="M704.67-419.91h0a56.509,56.509,0,0,0-14,4.23,35.16,35.16,0,0,0-11.31,8.16c-7.16,7.89-10.39,19.48-9.6,34.45.83,15.88,10.4,49.54,26.46,60.06a18.159,18.159,0,0,0,11,3.23,17.718,17.718,0,0,0,2.07-.24,21.4,21.4,0,0,0,6.87-2.58,34.27,34.27,0,0,1,11.17-3.95c7.32-1.29,15-.62,22.48,0h0c7.52.66,15.3,1.34,22.73,0A35.41,35.41,0,0,0,783-320c16.2-8.49,27.05-31,25.79-53.52-2.37-42.36-41.85-45.15-70.68-47.18l-1.09-.08c-6.16-.44-11.28-.61-16.09-.56a100.893,100.893,0,0,0-16.26,1.43Zm4.48,108.65a16.79,16.79,0,0,1-12.38-2.81c-15.7-10.29-25.06-43.38-25.88-59-.77-14.61,2.35-25.89,9.29-33.53a34.31,34.31,0,0,1,11-7.94,55.4,55.4,0,0,1,13.68-4.13A100.3,100.3,0,0,1,721-420.06c4.78-.06,9.86.12,16,.55l1.09.08c28.39,2,67.28,4.75,69.58,46,1.23,22-9.36,44.07-25.19,52.36a34.308,34.308,0,0,1-10.11,3.37c-7.31,1.29-15,.62-22.47,0h0a120.788,120.788,0,0,0-16.79-.68,48.793,48.793,0,0,0-5.91.66,35.18,35.18,0,0,0-11.5,4.06,20.279,20.279,0,0,1-6.55,2.4Z" transform="translate(73.85 631.556)"/><path d="M725.76-401.23h0a40.11,40.11,0,0,0-14.68,5.78,37.48,37.48,0,0,0-11,10.8c-9.08,13.87-5.56,29.62,9.4,42.14,6.88,5.74,15.63,6.55,21.76,6.22A47.643,47.643,0,0,0,737-337a52.2,52.2,0,0,0,12.7-4c12.67-5.86,20.71-15.46,21.51-25.67.71-9-4.25-18.08-14.32-26.31a39.181,39.181,0,0,0-15.38-7.81,37.72,37.72,0,0,0-15.75-.44Zm11,63.06a41,41,0,0,1-14.19.18,26,26,0,0,1-12.4-5.5c-14.39-12-17.81-27.14-9.13-40.4a36.411,36.411,0,0,1,10.66-10.5A38.83,38.83,0,0,1,726-400a40.16,40.16,0,0,1,4.51-.52,36.661,36.661,0,0,1,13.12,1.68,38.531,38.531,0,0,1,12.65,6.94c9.73,7.93,14.51,16.64,13.84,25.16-.76,9.76-8.56,19-20.86,24.68a51.561,51.561,0,0,1-12.5,3.89Z" transform="translate(73.85 631.556)"/><g transform="translate(820.262 63.591)"><path d="M920.44,468.78l292.74-51.71-174-985L746.44-516.22Z" transform="translate(-746.412 567.964)" fill="none"/><g transform="translate(0)" clip-path="url(#q)"><g transform="translate(95.745 14.824)"><path d="M1012.77-529.52c3.09,1.88,6,3.34,8.5,4.63,8,4.08,13.81,7,17.52,18.07,1.61,4.8-.68,19.5-2,28.29-.36,2.3-.64,4.12-.78,5.26-.94,7.85-5,15-9.29,22.51-3.71,6.5-7.54,13.22-9.11,20.38-4.4,20-1.41,40.5,1.49,60.33,1.65,11.32,3.36,23,3.7,34.57,1,33.48-8.16,35.11-23.27,37.81-6.25,1.12-13.34,2.39-21.41,6-17.93,8.1-24,13.2-29.69,31.36-2.81,9-9.52,17.35-16,25.46-8.9,11.13-18.12,22.64-18,36.17.18,29,12.88,72.91,36,97.13C977.82-72.83,1013-58,1047.07-43.74c5.73,2.41,11.66,4.9,17.43,7.4,4.53,2,9.55,3.88,14.86,5.9,17.86,6.8,36.33,13.83,37.26,23.8.54,5.86-5,11.9-16.95,18.48-33.75,18.58-71.7,14.89-108.39,11.31-6.61-.64-13.44-1.31-20.09-1.82-14.07-1.09-28.39-2-42.23-2.84l-13.55-.85c-5.21-.33-11.47-1.36-18.1-2.43-14.52-2.37-31-5.05-41.9-1.36-7.94,2.68-12,6.32-12.13,10.82-.37,15.76,45.25,38.67,60.24,46.19,1.31.66,2.39,1.2,3.19,1.62,17.12,8.82,26,22,34.55,34.64C949.51,119.33,958,132,974,140.9c10.54,5.91,22,10.89,34.07,16.16,26.16,11.39,53.21,23.16,71.65,45.32,15.74,18.9,34.75,29,53.14,38.68,14.2,7.5,28.88,15.26,42.19,27.08,20.57,18.25,19,39.27,17.4,61.52-.74,10.07-1.51,20.48-.35,31.25,1.62,15.16,6.86,35.62,15.11,57.22l-1.11.2c-8.25-21.65-13.49-42.14-15.11-57.33-1.17-10.9-.4-21.37.34-31.5,1.68-22.86,3.12-42.59-17-60.41-13.2-11.71-27.82-19.44-42-26.92-18.49-9.78-37.61-19.88-53.51-39-18.26-21.93-45.18-33.65-71.21-45-12.13-5.28-23.58-10.26-34.17-16.2-16.18-9.09-24.79-21.84-33.11-34.17-8.88-13.14-17.26-25.56-34.1-34.24L903.1,72c-15.17-7.62-61.33-30.79-60.94-47.41.12-5.07,4.46-9.08,12.89-11.92C866.21,8.9,882.79,11.6,897.42,14c6.61,1.08,12.84,2.09,18,2.42l13.55.85c13.85.86,28.17,1.75,42.25,2.84,6.66.52,13.5,1.18,20.1,1.83,36.55,3.55,74.33,7.23,107.81-11.19C1110.48,4.48,1116-1.34,1115.5-6.56c-.84-9.14-19.77-16.35-36.46-22.7-5.33-2-10.35-3.94-14.91-5.92-5.76-2.5-11.68-5-17.41-7.4-34.16-14.34-69.47-29.18-97.09-58-23.42-24.47-36.24-68.79-36.42-98.07-.08-14,9.26-25.67,18.31-37,6.71-8.39,13.06-16.32,15.8-25.06,5.83-18.6,12-23.81,30.3-32.07,8.18-3.7,15.33-5,21.65-6.11,15-2.68,23.3-4.16,22.36-36.6-.33-11.45-2-23.12-3.68-34.41-2.92-19.95-5.93-40.58-1.48-60.82,1.62-7.34,5.5-14.15,9.25-20.73,4.23-7.42,8.23-14.44,9.14-22,.14-1.16.42-3,.78-5.3,1.27-8.1,3.61-23.17,2.11-27.64-3.54-10.54-8.85-13.24-16.9-17.33-2.55-1.3-5.45-2.77-8.57-4.67-11-6.66-23.39-11.09-35.4-15.38-7.71-2.75-15.59-5.57-23.24-9l2.14-.37c7.07,3.07,14.3,5.67,21.4,8.2,12.06,4.31,24.53,8.76,35.6,15.48" transform="translate(-842.158 553.14)"/></g></g></g><path d="M1478.27,345.13c5.21-3.54,11.84-3.66,20.25-.39,7.61,2.95,12.81,10.24,16.87,18.94l-1.11.2c-3.91-8.37-8.85-15.16-16.09-18-8.07-3.15-14.39-3.05-19.3.29-6.7,4.54-9.89,14.64-11.8,26l-1.18.21c1.94-11.84,5.23-22.46,12.36-27.29" transform="translate(73.85 631.556)"/><path d="M693.42-506.85l3.73-.66c23.92,3.69,51.32,5.72,71.41-12.62l2.14-.38c-.36.36-.71.73-1.09,1.08-21.49,19.91-51.11,16.64-76.19,12.58" transform="translate(73.85 631.556)"/><g transform="translate(1397.84 1025.743)"><path d="M1324.13,397.47l13.69-2.42-.14-.83L1324,396.64Z" transform="translate(-1323.99 -394.187)" fill="none"/><g transform="translate(0)" clip-path="url(#r)"><g transform="translate(0.14 0.856)"><path d="M1337.82,395.05l-13.69,2.42a36,36,0,0,1,13.69-2.42" transform="translate(-1324.13 -395.043)"/></g></g></g><path d="M1413.21,351.41c-2.53-13.38-5.14-27.21.1-39.7,13.21-31.45,42.19-50.82,72.12-48.22,25.72,2.24,45.92,19.91,55.44,48.46,1.05,3.15,2.07,6.28,3.09,9.4,4,12.16,7.86,24.07,12.82,35l-1.14.2c-4.92-10.91-8.79-22.76-12.73-34.85-1-3.11-2-6.24-3.09-9.39-9.35-28.05-29.19-45.4-54.43-47.6-29.49-2.57-58,16.54-71.06,47.54-5.09,12.13-2.51,25.75,0,38.93,2,10.63,3.92,20.81,2,30l-1.22.22c2-9.08.13-19.3-1.9-30" transform="translate(73.85 631.556)"/><g transform="translate(893.661 51.133)"><path d="M993.83,455.82l289.79-51.2-174-985-289.79,51.2Z" transform="translate(-819.811 580.423)" fill="none"/><g transform="translate(0)" clip-path="url(#s)"><g transform="translate(102.94 16.493)"><path d="M1027.58-559.76c32,11.78,75.91,27.92,93.73,58.71,4.09,7.06,5.44,13.4,4.14,19.38-2.75,12.67-17.23,21.16-31.24,29.38-9,5.25-18.23,10.69-23.82,17-18.51,20.89-13.15,43.05-7.48,66.52,4,16.43,8.08,33.41,4.17,50.84-.95,4.24-1.72,9.69-2.53,15.46-1.74,12.39-3.72,26.44-8.34,34.51-5.27,9.2-14.48,12.8-23.39,16.29-7.61,3-15.48,6.06-20.89,12.61-18.16,22-25.76,81.83-14,110.36,14.59,35.41,57.78,48.12,99.56,60.41,31.69,9.33,64.45,19,83.32,38.59,7.11,7.39,10.54,15.87,10.19,25.2-.57,15.18-11.8,32.8-30,47.13-26.17,20.58-64.89,16.87-93.17,14.16-19.49-1.86-39.26-5.32-58.38-8.66-18.6-3.25-37.83-6.61-56.71-8.48l-1.91-.2c-8.38-.88-19.86-2.08-24.67,4.11-2.34,3-2.86,7.59-1.56,13.64C926.9,68,942,74.12,953,78.6c2.79,1.14,5.2,2.12,7.12,3.06,9.31,4.55,18.85,9,28.07,13.39,25.46,12,51.79,24.4,76.51,39.53,23.7,14.51,38,33.38,53.2,53.36,6.16,8.12,12.54,16.51,19.76,24.93,12.76,14.85,28.61,22.62,43.93,30.14,13.21,6.48,26.87,13.18,38.43,24.37,19.17,18.55,16.5,39.7,13.66,62.1-1.94,15.32-3.94,31.16,1.16,46.87,2.92,9,8.63,21.58,15.74,34.11l-1.08.19c-7.39-13.14-13.13-26-15.72-33.92-5.19-16-3.17-32-1.21-47.48,2.79-22,5.43-42.87-13.26-60.95-11.43-11.06-25-17.72-38.13-24.16-15.43-7.57-31.39-15.39-44.31-30.44-7.26-8.44-13.64-16.85-19.81-25-15.1-19.89-29.36-38.67-52.87-53.06-24.66-15.1-51-27.49-76.4-39.47-9.23-4.35-18.77-8.84-28.09-13.4-1.89-.92-4.28-1.89-7.05-3C941.4,75.18,926,68.9,923.48,57.43c-1.39-6.45-.79-11.4,1.78-14.71,5.17-6.65,17-5.41,25.59-4.51l1.91.2c18.91,1.88,38.17,5.24,56.79,8.49,19.1,3.34,38.85,6.79,58.29,8.65,28.11,2.69,66.61,6.38,92.45-13.95,18-14.12,29-31.4,29.58-46.21.33-8.94-3-17.09-9.82-24.21-18.65-19.39-51.27-29-82.81-38.27-42-12.37-85.52-25.16-100.33-61.14-11.9-28.87-4.21-89.41,14.18-111.69,5.58-6.77,13.58-9.9,21.32-12.93,9.14-3.58,17.77-7,22.85-15.82,4.5-7.85,6.46-21.77,8.18-34.05.82-5.8,1.59-11.27,2.55-15.56,3.84-17.13-.22-34-4.16-50.22-5.76-23.82-11.2-46.31,7.74-67.69,5.71-6.44,15-11.91,24.08-17.21,13.8-8.1,28.07-16.46,30.71-28.62,1.22-5.63-.08-11.65-4-18.4-17.59-30.39-61.23-46.44-93.1-58.16q-4.62-1.7-8.8-3.26c-1.44-.54-2.85-1.12-4.28-1.68l2.29-.41c.77.3,1.53.62,2.31.92,2.77,1,5.72,2.12,8.79,3.25" transform="translate(-922.751 563.93)"/></g></g></g><g transform="translate(959.85)"><path d="M1059.84,443l513-90.63L1399.05-631.5,886-540.88Z" transform="translate(-886 631.556)" fill="none"/><g transform="translate(0.016)" clip-path="url(#t)"><g transform="translate(108.76 62.836)"><path d="M1153.62-500.53c15.16,14.67,21.89,26.37,20.58,35.75-1.87,13.24-19.47,20.31-38.12,27.78-26.91,10.79-57.41,23-48.53,56.51,2.83,10.66,10.29,20.37,17.5,29.76,12.26,16,23.83,31,12.06,48.93a37.08,37.08,0,0,1-8,8.44c-4.35,3.64-8.46,7.08-10.44,16.91a69.684,69.684,0,0,0-1.24,14.27c0,7.66-.08,13.2-8.8,22.39-3.77,4-9.74,6.9-16.07,10-8.29,4.07-16.86,8.29-20.56,15.07-5.09,9.32-1.72,25.18,1.25,39.17a144.009,144.009,0,0,1,3,17.51c3.23,42.48,17.18,50.91,48.43,65.92,10.06,4.82,23.5,9.36,37.73,14.17,30.17,10.19,64.37,21.74,81.5,40.8,8.24,9.17,11.82,19.43,10.65,30.51-2.9,27.39-34.42,53.3-52.58,64.29-29.48,17.83-63.36,23.06-109.83,16.93-2.6-.34-7.51-1.62-13.73-3.24-19.9-5.16-56.92-14.78-61.49-3a13.25,13.25,0,0,0,.12,10.55c5.55,12.34,29.07,19.57,41.7,23.45,2.07.63,3.85,1.18,5.16,1.64,35,12.11,59.47,33.63,80.73,55.08q4.21,4.24,8.42,8.53c24.71,25.08,50.27,51,80,69,4.87,3,9.32,5.47,13.62,7.92,26.23,14.9,39.4,22.38,37.42,63.65-1.27,26.5-.61,63.93,19.71,83.11,6.43,6.06,11.84,8.66,16.54,7.92,7.29-1.14,12.14-10.18,17.26-19.75,5.57-10.39,11.32-21.13,21-23.68,7.72-2,16.23.58,24.46,3.12,12.45,3.84,24.21,7.46,33-4.15,7.41-9.78,3.58-23.12-.13-36-1.85-6.45-3.61-12.54-3.89-18-1-19.64,7.3-36.17,23.46-46.57,26.45-17,84.53-24.38,125.6-7.76a87.787,87.787,0,0,1,14.26,7.27l.28,1.6a85.636,85.636,0,0,0-14.88-7.71c-40.77-16.5-98.42-9.2-124.66,7.68-15.79,10.16-23.94,26.31-22.94,45.47.28,5.28,2,11.29,3.84,17.66,3.8,13.22,7.73,26.88-.06,37.17-9.24,12.2-21.9,8.3-34.14,4.52-8.09-2.49-16.47-5.07-23.9-3.1-9.21,2.44-14.85,13-20.3,23.14-5.26,9.82-10.23,19.09-18,20.31-5,.79-10.75-1.9-17.45-8.22-20.72-19.55-21.42-57.39-20.13-84.16,1.94-40.43-11-47.78-36.78-62.43-4.3-2.45-8.76-5-13.64-7.93-29.89-18.08-55.5-44.08-80.27-69.21q-4.2-4.28-8.41-8.53c-21.17-21.35-45.53-42.76-80.29-54.8-1.29-.45-3.07-1-5.12-1.62-12.81-3.94-36.66-11.27-42.46-24.14a14.531,14.531,0,0,1-.15-11.6c4.92-12.65,41.11-3.25,62.73,2.36,6.19,1.61,11.08,2.88,13.61,3.21,46.23,6.1,79.9.92,109.17-16.79,18-10.88,49.19-36.48,52-63.39,1.13-10.67-2.34-20.58-10.31-29.45-16.92-18.84-51-30.33-81-40.48-14.26-4.81-27.73-9.36-37.84-14.22-31.71-15.23-45.86-23.78-49.15-67a143.176,143.176,0,0,0-3-17.32c-3-14.22-6.44-30.35-1.12-40.08,3.87-7.09,12.6-11.39,21-15.54,6.24-3.07,12.13-6,15.77-9.8,8.39-8.84,8.42-13.89,8.47-21.53a70.007,70.007,0,0,1,1.26-14.52c2.06-10.26,6.32-13.82,10.83-17.6a35.8,35.8,0,0,0,7.78-8.19c11.27-17.13,0-31.83-12-47.39-7.29-9.5-14.84-19.32-17.73-30.24-9.17-34.58,21.83-47,49.18-58,18.34-7.36,35.67-14.3,37.43-26.86,1.25-8.91-5.35-20.22-20.19-34.58-29.22-28.28-61.69-44.22-93.1-59.63-6.08-3-12.2-6-18.32-9.1l2-.35c5.55,2.8,11.14,5.54,16.79,8.31,31.48,15.45,64,31.43,93.4,59.84" transform="translate(-994.776 568.72)"/></g></g></g><path d="M1145-535c37.63,24.66,58.86,48,63.1,69.39,2.09,10.53-.07,20.54-6.39,29.76-10.06,14.65-25.85,18.84-41.13,22.89-13.19,3.5-25.65,6.8-34.84,16.25-17.1,17.57-6.33,36.29,5.07,56.11,8.44,14.68,17.18,29.86,13.85,44.73-1.54,6.84-6,13-10.65,19.51-4.12,5.71-8.37,11.62-10.42,18-5.76,17.82-9.71,23.94-19.26,38.73l-.2.31c-19.23,29.79-3,66,8.33,84.85,20.51,34.12,56,45.11,88,51.36,3.86.75,7.89,1.4,11.79,2,26.17,4.23,53.23,8.6,55.79,46.49,2.32,34.5-20.4,71.82-39.88,97.07-19.86,25.74-50.06,37.07-89.76,33.66-3-.26-8.29-2-14.44-4.11-14.92-5-35.34-11.85-42.06-4.14-2.78,3.19-3,8.79-.56,16.66,2.2,7.2,11.43,13,19.58,18.22a86.646,86.646,0,0,1,10,6.91c9.87,8.57,18.89,18.64,27.6,28.38,6.7,7.48,13.63,15.22,20.89,22.21,13.17,12.68,32.8,22,51.77,31,37.84,17.94,77,36.48,71.93,83.15-.26,2.36-.55,4.78-.84,7.22-2,16.32-4,33.2,3.43,42.05,3.93,4.68,10.13,6.73,19,6.14,11.68-.72,45.18-4.36,59.77-12.39,19.35-10.63,17.54-24.62,12.57-44.74-5.9-23.87-9.08-39-3.53-48.56,4.51-7.74,14.8-12.05,36.68-15.38,9.06-1.37,17.53-2.92,25.73-4.41,36.06-6.58,64.54-11.77,104.54,3.6,3.87,1.49,7.59,2.83,11.21,4l.24,1.36c-3.8-1.28-7.7-2.67-11.78-4.24-39.72-15.26-68.08-10.09-104-3.55-8.2,1.5-16.68,3-25.75,4.42-21.54,3.27-31.61,7.44-35.94,14.86-5.3,9.09-2.15,24,3.66,47.57,5,20.07,6.92,35.13-13.11,46.14-14.76,8.11-48.46,11.78-60.2,12.51-9.19.59-15.7-1.57-19.89-6.55-7.81-9.31-5.74-26.49-3.73-43.1.29-2.43.58-4.84.83-7.2,4.94-45.71-33.78-64.06-71.22-81.81-19-9-38.76-18.37-52.08-31.19-7.29-7-14.23-14.78-21-22.28-8.69-9.71-17.67-19.75-27.48-28.26a88.555,88.555,0,0,0-9.82-6.81c-8.33-5.28-17.78-11.27-20.12-18.93-2.55-8.35-2.28-14.37.79-17.9,7.18-8.23,28-1.26,43.16,3.83,6.1,2,11.36,3.81,14.2,4.06,39.34,3.37,69.23-7.81,88.86-33.26,19.34-25.07,41.92-62.11,39.63-96.19-2.49-36.85-29.08-41.15-54.79-45.3-3.91-.63-7.94-1.28-11.82-2-32.24-6.29-68-17.39-88.77-51.92-11.53-19.18-27.94-55.88-8.32-86.27l.2-.3c9.48-14.7,13.41-20.78,19.12-38.44,2.11-6.54,6.42-12.52,10.59-18.31,4.61-6.41,9-12.47,10.44-19.06,3.22-14.35-5.37-29.3-13.69-43.75-11.15-19.38-22.68-39.42-4.92-57.67,9.4-9.65,22.58-13.15,35.32-16.53,15.1-4,30.71-8.14,40.53-22.45,6.13-8.93,8.21-18.61,6.2-28.77-4.17-21-25.21-44.08-62.54-68.55-13.23-8.67-27.44-15.58-41.18-22.26-11-5.34-22.15-10.77-33-17.18l1.81-.32c10.37,6,21.06,11.26,31.57,16.37,13.77,6.69,28,13.62,41.31,22.33" transform="translate(73.85 631.556)"/><g transform="translate(1150.852 0.005)"><path d="M1230.78,295.76l322-56.88L1399.05-631.5l-322,56.88Z" transform="translate(-1077.002 631.551)" fill="none"/><g transform="translate(0)" clip-path="url(#u)"><g transform="translate(45.388 48.521)"><path d="M1219.62-529.62c17.88,17.51,69.92,78.23,70.38,108.57.42,27.74-29,31.15-50.42,33.64-5,.58-9.69,1.13-13.47,1.92-14.3,3-31.47,8.05-37.44,21-3.56,7.72-3,17.39,1.8,29.55,5.83,14.84,13.88,25.08,21,34.11,12.33,15.68,23,29.21,16.19,59.59a156.406,156.406,0,0,1-7,21.51c-7.71,20.35-13.81,36.43,10.69,52.7,32.8,21.79,43.78,23.49,90,30.67l1.53.24c11.34,1.76,47,16.93,51.57,32.51,4.26,14.64-10.76,25.59-25.28,36.17-9,6.59-18.39,13.41-22.69,20.9-8,13.85-10.11,29.78-12.19,45.18-2.55,18.92-5.19,38.49-18.37,55.19-9.71,12.31-21.55,22.78-33,32.91-3.31,2.94-6.74,6-10,9-2.28,2.08-5.4,4.64-9,7.6-14.22,11.63-35.69,29.22-37.49,44.14-2,16.61,25.11,32.67,46.9,45.58,11,6.5,21.35,12.65,26.7,18,2.59,2.59,6.87,8.12,12.29,15.13,15.51,20,39,50.32,51,48.4,2.74-.44,4.71-2.54,6-6.41,3.29-9.8.12-20.13-3-30.12-4.53-14.75-9.22-30,8.71-42,7.54-5,17.59-5.29,27.31-5.54a96.047,96.047,0,0,0,13.76-1c16.24-2.83,30.5-8.9,45.59-15.34,5.87-2.5,11.94-5.08,18.1-7.45,28.81-11,53-13.78,81.31,6.09l.29,1.65C1513.08,154.31,1489,157,1460.25,168c-6.15,2.36-12.21,4.94-18.06,7.44-15.15,6.45-29.46,12.55-45.81,15.4a98.2,98.2,0,0,1-13.92,1c-9.57.24-19.47.49-26.77,5.36-17.2,11.47-12.85,25.59-8.26,40.54,3.14,10.19,6.38,20.74,3,30.94-1.43,4.26-3.73,6.67-6.85,7.17-12.7,2.1-36.42-28.58-52.11-48.85-5.39-7-9.65-12.47-12.17-15-5.25-5.26-15.55-11.36-26.47-17.83-23.25-13.78-49.62-29.4-47.51-46.88,1.86-15.43,23.55-33.19,37.9-45,3.6-2.95,6.71-5.49,9-7.56,3.3-3,6.73-6.05,10-9,11.41-10.1,23.21-20.54,32.86-32.77,13-16.44,15.6-35.83,18.12-54.59,2.1-15.52,4.26-31.58,12.35-45.65,4.43-7.7,13.87-14.58,23-21.24,14.19-10.34,28.86-21,24.86-34.79-4.1-14.11-38-29.66-50.61-31.61l-1.53-.24c-46.39-7.21-57.41-8.92-90.42-30.85-25.38-16.85-18.8-34.2-11.18-54.28a155.315,155.315,0,0,0,6.92-21.34c6.65-29.74-3.31-42.41-15.94-58.45-7.16-9.1-15.28-19.42-21.17-34.44-4.92-12.53-5.51-22.55-1.79-30.62,6.19-13.42,23.66-18.61,38.19-21.63,3.82-.8,8.56-1.35,13.57-1.93,21-2.45,49.87-5.8,49.46-32.45-.45-29.91-52.2-90.2-70-107.62-21.39-20.93-44.3-30.79-68.57-41.23-9.16-3.93-18.53-8-27.95-12.68l2-.35c8.87,4.37,17.69,8.17,26.32,11.89,24.37,10.48,47.38,20.37,68.93,41.47" transform="translate(-1122.39 583.03)"/></g></g></g></g></g></g></g></g></g></g></svg>
